<?xml version="1.0" encoding="utf-8"?>
<!-- Generator: Adobe Illustrator 16.0.0, SVG Export Plug-In . SVG Version: 6.00 Build 0)  -->
<!DOCTYPE svg PUBLIC "-//W3C//DTD SVG 1.1//EN" "http://www.w3.org/Graphics/SVG/1.1/DTD/svg11.dtd">
<svg version="1.1" id="Capa_1" xmlns="http://www.w3.org/2000/svg" xmlns:xlink="http://www.w3.org/1999/xlink" x="0px" y="0px"
	 width="23px" height="18.705px" viewBox="0 0 23 18.705" enable-background="new 0 0 23 18.705" xml:space="preserve">
<path fill="#FFFFFF" d="M23.017,2.214c-0.847,0.376-1.757,0.63-2.712,0.744c0.975-0.584,1.725-1.509,2.076-2.612
	c-0.911,0.541-1.922,0.935-2.998,1.146C18.521,0.573,17.293,0,15.936,0c-2.607,0-4.723,2.115-4.723,4.722
	c0,0.372,0.042,0.731,0.123,1.076C7.411,5.602,3.932,3.722,1.602,0.864C1.196,1.562,0.963,2.373,0.963,3.238
	c0,1.638,0.833,3.084,2.1,3.931C2.29,7.145,1.562,6.931,0.925,6.578v0.059c0,2.288,1.628,4.197,3.788,4.63
	c-0.396,0.107-0.814,0.167-1.244,0.167c-0.304,0-0.601-0.03-0.888-0.086c0.601,1.876,2.344,3.24,4.41,3.28
	c-1.615,1.266-3.651,2.021-5.865,2.021c-0.38,0-0.755-0.022-1.125-0.065c2.089,1.338,4.572,2.121,7.24,2.121
	c8.685,0,13.435-7.195,13.435-13.436c0-0.204-0.006-0.408-0.014-0.612C21.582,3.993,22.382,3.161,23.017,2.214z"/>
</svg>
