<?xml version="1.0" encoding="UTF-8"?>
<!-- Generator: Adobe Illustrator 16.0.0, SVG Export Plug-In . SVG Version: 6.00 Build 0)  -->
<!DOCTYPE svg PUBLIC "-//W3C//DTD SVG 1.1//EN" "http://www.w3.org/Graphics/SVG/1.1/DTD/svg11.dtd">
<svg version="1.1" id="Capa_1" xmlns="http://www.w3.org/2000/svg" xmlns:xlink="http://www.w3.org/1999/xlink" x="0px" y="0px" width="21px" height="18.047px" viewBox="0 0 21 18.047" enable-background="new 0 0 21 18.047" xml:space="preserve">
<path fill-rule="evenodd" clip-rule="evenodd" fill="#FFFFFF" d="M20.837,3.358c0.156-0.876,0.152-1.777-0.389-2.458  c-0.755-0.956-2.362-0.99-3.463-0.822c-0.896,0.137-3.925,1.473-4.955,4.673c1.825-0.139,2.783,0.131,2.606,2.142  c-0.073,0.841-0.498,1.763-0.972,2.647c-0.549,1.018-1.576,3.019-2.923,1.577C9.529,9.82,9.62,7.338,9.343,5.686  C9.188,4.758,9.024,3.603,8.721,2.649C8.459,1.829,7.858,0.84,7.125,0.626c-0.789-0.232-1.763,0.13-2.335,0.467  C2.966,2.164,1.577,3.689,0,4.946v0.118c0.312,0.298,0.396,0.788,0.857,0.855c1.085,0.16,2.12-1.012,2.841,0.208  C4.137,6.871,4.274,7.688,4.555,8.49c0.376,1.07,0.666,2.234,0.973,3.463c0.52,2.083,1.159,5.195,2.959,5.957  c0.918,0.39,2.299-0.132,2.998-0.547c1.893-1.12,3.369-2.744,4.631-4.397C19.003,9.056,20.597,4.625,20.837,3.358z"/>
</svg>