<?xml version="1.0" encoding="utf-8"?>
<!-- Generator: Adobe Illustrator 16.0.0, SVG Export Plug-In . SVG Version: 6.00 Build 0)  -->
<!DOCTYPE svg PUBLIC "-//W3C//DTD SVG 1.1//EN" "http://www.w3.org/Graphics/SVG/1.1/DTD/svg11.dtd">
<svg version="1.1" id="Capa_1" xmlns="http://www.w3.org/2000/svg" xmlns:xlink="http://www.w3.org/1999/xlink" x="0px" y="0px"
	 width="16.646px" height="20px" viewBox="0 0 16.646 20" enable-background="new 0 0 16.646 20" xml:space="preserve">
<g>
	<path fill="#FFFFFF" d="M6.58,0H5.44L4.671,2.935L3.872,0H2.685C2.922,0.692,3.17,1.389,3.408,2.083
		c0.361,1.042,0.587,1.828,0.688,2.365v3.027h1.128V4.447L6.58,0z M9.593,5.671V3.72c0-0.595-0.102-1.03-0.315-1.312
		C8.996,2.028,8.601,1.836,8.091,1.836c-0.506,0-0.902,0.191-1.183,0.571C6.691,2.69,6.589,3.125,6.589,3.72v1.951
		c0,0.592,0.102,1.031,0.318,1.31c0.281,0.381,0.677,0.571,1.183,0.571c0.51,0,0.905-0.19,1.187-0.571
		C9.491,6.702,9.593,6.263,9.593,5.671z M8.577,5.861c0,0.515-0.157,0.773-0.486,0.773c-0.327,0-0.485-0.258-0.485-0.773V3.518
		c0-0.516,0.158-0.772,0.485-0.772c0.329,0,0.486,0.256,0.486,0.772V5.861z M13.353,7.475v-5.57h-1.017v4.258
		c-0.226,0.315-0.439,0.472-0.643,0.472c-0.136,0-0.216-0.08-0.238-0.236c-0.011-0.034-0.011-0.156-0.011-0.393V1.904H10.43v4.404
		c0,0.393,0.034,0.66,0.09,0.828c0.102,0.282,0.328,0.415,0.655,0.415c0.37,0,0.756-0.224,1.161-0.685v0.608H13.353z"/>
	<path fill="#FFFFFF" d="M10.166,13.131c-0.166,0-0.333,0.078-0.501,0.242v3.359C9.833,16.9,10,16.977,10.166,16.977
		c0.291,0,0.438-0.244,0.438-0.741v-2.354C10.603,13.387,10.456,13.131,10.166,13.131z M13.899,13.131
		c-0.337,0-0.506,0.256-0.506,0.764v0.51H14.4v-0.51C14.4,13.387,14.23,13.131,13.899,13.131z M16.358,10.327
		c-0.204-0.878-0.927-1.527-1.8-1.623c-2.064-0.229-4.154-0.229-6.233-0.229c-2.079,0-4.169,0-6.233,0.229
		C1.221,8.8,0.496,9.449,0.293,10.327C0.003,11.58,0,12.945,0,14.235c0,1.286,0,2.654,0.29,3.905
		c0.203,0.879,0.927,1.526,1.799,1.624c2.064,0.229,4.153,0.231,6.233,0.229c2.08,0.002,4.17,0,6.234-0.229
		c0.871-0.098,1.595-0.745,1.799-1.624c0.29-1.251,0.292-2.619,0.292-3.905C16.646,12.945,16.647,11.58,16.358,10.327z
		 M4.749,11.454H3.542v6.355H2.424v-6.355H1.24v-1.042h3.508V11.454z M7.788,17.81H6.781v-0.601
		c-0.399,0.455-0.779,0.679-1.149,0.679c-0.325,0-0.548-0.133-0.648-0.41c-0.055-0.17-0.089-0.433-0.089-0.821v-4.358H5.9v4.058
		c0,0.233,0,0.357,0.009,0.389c0.024,0.156,0.101,0.232,0.235,0.232c0.202,0,0.415-0.152,0.637-0.465v-4.214h1.007V17.81z
		 M11.608,16.157c0,0.51-0.033,0.876-0.101,1.109c-0.135,0.411-0.404,0.621-0.805,0.621c-0.358,0-0.704-0.198-1.039-0.613v0.535
		H8.659v-7.397h1.005v2.416c0.325-0.396,0.669-0.599,1.039-0.599c0.401,0,0.67,0.21,0.805,0.623
		c0.067,0.223,0.101,0.585,0.101,1.109V16.157z M15.406,15.236h-2.013v0.978c0,0.51,0.169,0.763,0.514,0.763
		c0.248,0,0.393-0.133,0.451-0.399c0.009-0.054,0.021-0.275,0.021-0.676h1.027v0.146c0,0.32-0.014,0.542-0.022,0.643
		c-0.033,0.223-0.112,0.422-0.233,0.599c-0.279,0.401-0.692,0.6-1.218,0.6c-0.526,0-0.927-0.189-1.219-0.566
		c-0.212-0.276-0.321-0.71-0.321-1.295v-1.931c0-0.591,0.098-1.021,0.311-1.3c0.29-0.378,0.69-0.566,1.204-0.566
		c0.505,0,0.905,0.188,1.188,0.566c0.211,0.279,0.312,0.709,0.312,1.3V15.236z"/>
</g>
</svg>
